<svg width="100" height="125" viewBox="0 0 100 125" fill="none" xmlns="http://www.w3.org/2000/svg">
<rect y="105" width="15" height="20" rx="4" fill="#FFE873"/>
<path fill-rule="evenodd" clip-rule="evenodd" d="M100 109C100 106.791 98.2091 105 96 105H24C21.7909 105 20 106.791 20 109V121C20 123.209 21.7909 125 24 125H96C98.2091 125 100 123.209 100 121V109ZM30 120C32.7614 120 35 117.761 35 115C35 112.239 32.7614 110 30 110C27.2386 110 25 112.239 25 115C25 117.761 27.2386 120 30 120ZM75 120C77.7614 120 80 117.761 80 115C80 112.239 77.7614 110 75 110C72.2386 110 70 112.239 70 115C70 117.761 72.2386 120 75 120ZM95 115C95 117.761 92.7614 120 90 120C87.2386 120 85 117.761 85 115C85 112.239 87.2386 110 90 110C92.7614 110 95 112.239 95 115ZM60 120C62.7614 120 65 117.761 65 115C65 112.239 62.7614 110 60 110C57.2386 110 55 112.239 55 115C55 117.761 57.2386 120 60 120ZM50 115C50 117.761 47.7614 120 45 120C42.2386 120 40 117.761 40 115C40 112.239 42.2386 110 45 110C47.7614 110 50 112.239 50 115Z" fill="#FFE873"/>
<rect y="22" width="9" height="78" rx="4" fill="#4B8BBE"/>
<path fill-rule="evenodd" clip-rule="evenodd" d="M20.8333 41.6667C32.3393 41.6667 41.6667 34.2047 41.6667 25C41.6667 15.7953 32.3393 8.33333 20.8333 8.33333C9.3274 8.33333 0 15.7953 0 25C0 34.2047 9.3274 41.6667 20.8333 41.6667ZM21.5 33C25.6421 33 29 29.6421 29 25.5C29 21.3579 25.6421 18 21.5 18C17.3579 18 14 21.3579 14 25.5C14 29.6421 17.3579 33 21.5 33Z" fill="#4B8BBE"/>
<rect x="58" y="13" width="9" height="87" rx="4" fill="#4B8BBE"/>
<path fill-rule="evenodd" clip-rule="evenodd" d="M78.8333 33.3333C90.3393 33.3333 99.6667 25.8714 99.6667 16.6667C99.6667 7.46192 90.3393 0 78.8333 0C67.3274 0 58 7.46192 58 16.6667C58 25.8714 67.3274 33.3333 78.8333 33.3333ZM79.5 24C83.6421 24 87 20.6421 87 16.5C87 12.3579 83.6421 9 79.5 9C75.3579 9 72 12.3579 72 16.5C72 20.6421 75.3579 24 79.5 24Z" fill="#4B8BBE"/>
<rect x="4" y="91" width="59" height="9" fill="#4B8BBE"/>
</svg>
