<svg width="100" height="100" viewBox="0 0 100 100" fill="none" xmlns="http://www.w3.org/2000/svg">
<rect y="84.375" width="12.605" height="15.625" rx="4" fill="#FFE873"/>
<path fill-rule="evenodd" clip-rule="evenodd" d="M84.0336 88.375C84.0336 86.1659 82.2428 84.375 80.0336 84.375H20.8067C18.5976 84.375 16.8067 86.1659 16.8067 88.375V96C16.8067 98.2091 18.5976 100 20.8067 100H80.0336C82.2428 100 84.0336 98.2091 84.0336 96V88.375ZM25.2101 96.0938C27.5306 96.0938 29.4118 94.3449 29.4118 92.1875C29.4118 90.0301 27.5306 88.2812 25.2101 88.2812C22.8896 88.2812 21.0084 90.0301 21.0084 92.1875C21.0084 94.3449 22.8896 96.0938 25.2101 96.0938ZM63.0252 96.0938C65.3457 96.0938 67.2269 94.3449 67.2269 92.1875C67.2269 90.0301 65.3457 88.2812 63.0252 88.2812C60.7047 88.2812 58.8235 90.0301 58.8235 92.1875C58.8235 94.3449 60.7047 96.0938 63.0252 96.0938ZM79.8319 92.1875C79.8319 94.3449 77.9508 96.0938 75.6303 96.0938C73.3097 96.0938 71.4286 94.3449 71.4286 92.1875C71.4286 90.0301 73.3097 88.2812 75.6303 88.2812C77.9508 88.2812 79.8319 90.0301 79.8319 92.1875ZM50.4202 96.0938C52.7407 96.0938 54.6219 94.3449 54.6219 92.1875C54.6219 90.0301 52.7407 88.2812 50.4202 88.2812C48.0997 88.2812 46.2185 90.0301 46.2185 92.1875C46.2185 94.3449 48.0997 96.0938 50.4202 96.0938ZM42.0168 92.1875C42.0168 94.3449 40.1357 96.0938 37.8151 96.0938C35.4946 96.0938 33.6135 94.3449 33.6135 92.1875C33.6135 90.0301 35.4946 88.2812 37.8151 88.2812C40.1357 88.2812 42.0168 90.0301 42.0168 92.1875Z" fill="#FFE873"/>
<ellipse cx="33.4734" cy="19.5312" rx="17.507" ry="13.0208" fill="#4B8BBE"/>
<rect x="15.9664" y="17.1875" width="7.56303" height="60.9375" rx="3.78151" fill="#4B8BBE"/>
<ellipse cx="82.2129" cy="13.0208" rx="17.507" ry="13.0208" fill="#4B8BBE"/>
<rect x="64.7059" y="10.1562" width="7.56303" height="67.9688" rx="3.78152" fill="#4B8BBE"/>
<rect x="19.3278" y="71.0938" width="49.5798" height="7.03125" fill="#4B8BBE"/>
</svg>
